<?xml version="1.0" encoding="utf-8"?>
<?xml-stylesheet type="text/xsl" href="rss1.xsl"?>
<rss version="2.0" xmlns:atom="http://www.w3.org/2005/Atom" xmlns:content="http://purl.org/rss/1.0/modules/content/" xmlns:dc="http://purl.org/dc/elements/1.1/" xmlns:media="http://search.yahoo.com/mrss/">
<channel>
 <title>Getty</title>
 <link>http://www.gettyimg.com/</link>
 <atom:link href="http://www.gettyimg.com/" rel="self" type="application/rss+xml" />

 
                <item>
                <title><![CDATA[【Cinema Center】SERIES - Star Wars: Young Jedi Adventures - Season 1 - 1080p Disney+ WEB-DL DDP5.1 H.264-LAZY]]></title>
                <link><![CDATA[https://sharemania.us/threads/star-wars-young-jedi-adventures-season-1-1080p-disney-web-dl-ddp5-1-h-264-lazy.237836/]]></link>
                <description><![CDATA[<article>
<blockquote class="messageText SelectQuoteContainer ugc baseHtml">
Star Wars: Young Jedi Adventures:<img src="http:////cdn2.broadcasthe.net/tvdb/banners/v4/series/420658/banners/644bef2b71142.jpg" class="bbCodeImage LbImage" alt="[​IMG]" data-url="http:////cdn2.broadcasthe.net/tvdb/banners/v4/series/420658/banners/644bef2b71142.jpg" style=""> <br>
<br>
<div class="bbCodeBlock bbCodeQuote">
<aside>
<blockquote class="quoteContainer"><div class="quote"><i><b>Synopsis:</b></i><br>
Set during the High Republic era, centuries before the events of the main Star Wars films, Star Wars: Young Jedi Adventures follows a group of younglings as they learn the ways of the Force, including compassion, self-discipline, teamwork and patience, to become Jedi Knights.</div><div class="quoteExpand">Click to expand...</div></blockquote>
</aside>
</div>
<div class="ToggleTriggerAnchor bbCodeSpoilerContainer">
<button type="button" class="button bbCodeSpoilerButton ToggleTrigger Tooltip JsOnly" data-target="> .SpoilerTarget"><span>Spoiler: <span class="SpoilerTitle">MediaInfo</span></span></button>
<div class="SpoilerTarget bbCodeSpoilerText">General<br>
Unique ID : 31202502181669747424254540264376704397 (0x17796221DBECC39B4511CF2EB6B51D8D)<br>
Complete name : Star.Wars.Young.Jedi.Adventures.S01E01E02.The.Young.Jedi.-.Yodas.Mission.1080p.DSNP.WEB-DL.DDP5.1.H.264-LAZY.mkv<br>
Format : Matroska<br>
Format version : Version 4<br>
File size : 1.29 GiB<br>
Duration : 24 min 3 s<br>
Overall bit rate mode : Variable<br>
Overall bit rate : 7 706 kb/s<br>
Frame rate : 23.976 FPS<br>
Encoded date : 2024-02-15 17:11:15 UTC<br>
Writing application : mkvmerge v82.0 ('I'm The President') 64-bit<br>
Writing library : libebml v1.4.5 + libmatroska v1.7.1<br>
<br>
Video<br>
ID : 1<br>
Format : AVC<br>
Format/Info : Advanced Video Codec<br>
Format profile : High@L4<br>
Format settings : CABAC / 4 Ref Frames<br>
Format settings, CABAC : Yes<br>
Format settings, Reference frames : 4 frames<br>
Codec ID : V_MPEG4/ISO/AVC<br>
Duration : 24 min 3 s<br>
Bit rate mode : Variable<br>
Bit rate : 7 444 kb/s<br>
Maximum bit rate : 12.7 Mb/s<br>
Width : 1 920 pixels<br>
Height : 1 080 pixels<br>
Display aspect ratio : 16:9<br>
Frame rate mode : Constant<br>
Frame rate : 23.976 (24000/1001) FPS<br>
Color space : YUV<br>
Chroma subsampling : 4:2:0<br>
Bit depth : 8 bits<br>
Scan type : Progressive<br>
Bits/(Pixel*Frame) : 0.150<br>
Stream size : 1.25 GiB (97%)<br>
Default : Yes<br>
Forced : No<br>
Color range : Limited<br>
Color primaries : BT.709<br>
Transfer characteristics : BT.709<br>
Matrix coefficients : BT.709<br>
<br>
Audio<br>
ID : 2<br>
Format : E-AC-3<br>
Format/Info : Enhanced AC-3<br>
Commercial name : Dolby Digital Plus<br>
Codec ID : A_EAC3<br>
Duration : 24 min 3 s<br>
Bit rate mode : Constant<br>
Bit rate : 256 kb/s<br>
Channel(s) : 6 channels<br>
Channel layout : L R C LFE Ls Rs<br>
Sampling rate : 48.0 kHz<br>
Frame rate : 31.250 FPS (1536 SPF)<br>
Compression mode : Lossy<br>
Stream size : 44.1 MiB (3%)<br>
Language : English<br>
Service kind : Complete Main<br>
Default : Yes<br>
Forced : No<br>
<br>
Text #1<br>
ID : 3<br>
Format : UTF-8<br>
Codec ID : S_TEXT/UTF8<br>
Codec ID/Info : UTF-8 Plain Text<br>
Duration : 23 min 5 s<br>
Bit rate : 87 b/s<br>
Frame rate : 0.375 FPS<br>
Count of elements : 519<br>
Stream size : 14.7 KiB (0%)<br>
Title : SDH<br>
Language : English<br>
Default : No<br>
Forced : No<br>
<br>
Text #2<br>
ID : 4<br>
Format : UTF-8<br>
Codec ID : S_TEXT/UTF8<br>
Codec ID/Info : UTF-8 Plain Text<br>
Duration : 23 min 31 s<br>
Bit rate : 54 b/s<br>
Frame rate : 0.228 FPS<br>
Count of elements : 322<br>
Stream size : 9.46 KiB (0%)<br>
Language : Czech<br>
Default : No<br>
Forced : No<br>
<br>
Text #3<br>
ID : 5<br>
Format : UTF-8<br>
Codec ID : S_TEXT/UTF8<br>
Codec ID/Info : UTF-8 Plain Text<br>
Duration : 23 min 31 s<br>
Bit rate : 62 b/s<br>
Frame rate : 0.260 FPS<br>
Count of elements : 367<br>
Stream size : 10.8 KiB (0%)<br>
Language : Danish<br>
Default : No<br>
Forced : No<br>
<br>
Text #4<br>
ID : 6<br>
Format : UTF-8<br>
Codec ID : S_TEXT/UTF8<br>
Codec ID/Info : UTF-8 Plain Text<br>
Duration : 23 min 31 s<br>
Bit rate : 59 b/s<br>
Frame rate : 0.239 FPS<br>
Count of elements : 338<br>
Stream size : 10.2 KiB (0%)<br>
Language : German<br>
Default : No<br>
Forced : No<br>
<br>
Text #5<br>
ID : 7<br>
Format : UTF-8<br>
Codec ID : S_TEXT/UTF8<br>
Codec ID/Info : UTF-8 Plain Text<br>
Duration : 23 min 5 s<br>
Bit rate : 102 b/s<br>
Frame rate : 0.243 FPS<br>
Count of elements : 336<br>
Stream size : 17.4 KiB (0%)<br>
Language : Greek<br>
Default : No<br>
Forced : No<br>
<br>
Text #6<br>
ID : 8<br>
Format : UTF-8<br>
Codec ID : S_TEXT/UTF8<br>
Codec ID/Info : UTF-8 Plain Text<br>
Duration : 23 min 31 s<br>
Bit rate : 56 b/s<br>
Frame rate : 0.197 FPS<br>
Count of elements : 278<br>
Stream size : 9.71 KiB (0%)<br>
Title : Latin American<br>
Language : Spanish<br>
Default : No<br>
Forced : No<br>
<br>
Text #7<br>
ID : 9<br>
Format : UTF-8<br>
Codec ID : S_TEXT/UTF8<br>
Codec ID/Info : UTF-8 Plain Text<br>
Duration : 23 min 29 s<br>
Bit rate : 89 b/s<br>
Frame rate : 0.360 FPS<br>
Count of elements : 508<br>
Stream size : 15.4 KiB (0%)<br>
Title : Latin American (SDH)<br>
Language : Spanish<br>
Default : No<br>
Forced : No<br>
<br>
Text #8<br>
ID : 10<br>
Format : UTF-8<br>
Codec ID : S_TEXT/UTF8<br>
Codec ID/Info : UTF-8 Plain Text<br>
Duration : 23 min 31 s<br>
Bit rate : 52 b/s<br>
Frame rate : 0.244 FPS<br>
Count of elements : 344<br>
Stream size : 8.98 KiB (0%)<br>
Title : European<br>
Language : Spanish<br>
Default : No<br>
Forced : No<br>
<br>
Text #9<br>
ID : 11<br>
Format : UTF-8<br>
Codec ID : S_TEXT/UTF8<br>
Codec ID/Info : UTF-8 Plain Text<br>
Duration : 23 min 56 s<br>
Bit rate : 78 b/s<br>
Frame rate : 0.354 FPS<br>
Count of elements : 508<br>
Stream size : 13.7 KiB (0%)<br>
Title : European (SDH)<br>
Language : Spanish<br>
Default : No<br>
Forced : No<br>
<br>
Text #10<br>
ID : 12<br>
Format : UTF-8<br>
Codec ID : S_TEXT/UTF8<br>
Codec ID/Info : UTF-8 Plain Text<br>
Duration : 23 min 15 s<br>
Bit rate : 50 b/s<br>
Frame rate : 0.252 FPS<br>
Count of elements : 352<br>
Stream size : 8.65 KiB (0%)<br>
Language : Finnish<br>
Default : No<br>
Forced : No<br>
<br>
Text #11<br>
ID : 13<br>
Format : UTF-8<br>
Codec ID : S_TEXT/UTF8<br>
Codec ID/Info : UTF-8 Plain Text<br>
Duration : 23 min 31 s<br>
Bit rate : 61 b/s<br>
Frame rate : 0.257 FPS<br>
Count of elements : 363<br>
Stream size : 10.7 KiB (0%)<br>
Language : French<br>
Default : No<br>
Forced : No<br>
<br>
Text #12<br>
ID : 14<br>
Format : UTF-8<br>
Codec ID : S_TEXT/UTF8<br>
Codec ID/Info : UTF-8 Plain Text<br>
Duration : 23 min 31 s<br>
Bit rate : 57 b/s<br>
Frame rate : 0.237 FPS<br>
Count of elements : 334<br>
Stream size : 9.83 KiB (0%)<br>
Language : Hungarian<br>
Default : No<br>
Forced : No<br>
<br>
Text #13<br>
ID : 15<br>
Format : UTF-8<br>
Codec ID : S_TEXT/UTF8<br>
Codec ID/Info : UTF-8 Plain Text<br>
Duration : 23 min 31 s<br>
Bit rate : 60 b/s<br>
Frame rate : 0.247 FPS<br>
Count of elements : 349<br>
Stream size : 10.4 KiB (0%)<br>
Language : Italian<br>
Default : No<br>
Forced : No<br>
<br>
Text #14<br>
ID : 16<br>
Format : UTF-8<br>
Codec ID : S_TEXT/UTF8<br>
Codec ID/Info : UTF-8 Plain Text<br>
Duration : 23 min 15 s<br>
Bit rate : 55 b/s<br>
Frame rate : 0.245 FPS<br>
Count of elements : 342<br>
Stream size : 9.40 KiB (0%)<br>
Language : Japanese<br>
Default : No<br>
Forced : No<br>
<br>
Text #15<br>
ID : 17<br>
Format : UTF-8<br>
Codec ID : S_TEXT/UTF8<br>
Codec ID/Info : UTF-8 Plain Text<br>
Duration : 23 min 15 s<br>
Bit rate : 73 b/s<br>
Frame rate : 0.257 FPS<br>
Count of elements : 359<br>
Stream size : 12.5 KiB (0%)<br>
Language : Korean<br>
Default : No<br>
Forced : No<br>
<br>
Text #16<br>
ID : 18<br>
Format : UTF-8<br>
Codec ID : S_TEXT/UTF8<br>
Codec ID/Info : UTF-8 Plain Text<br>
Duration : 23 min 15 s<br>
Bit rate : 50 b/s<br>
Frame rate : 0.191 FPS<br>
Count of elements : 267<br>
Stream size : 8.64 KiB (0%)<br>
Language : Dutch<br>
Default : No<br>
Forced : No<br>
<br>
Text #17<br>
ID : 19<br>
Format : UTF-8<br>
Codec ID : S_TEXT/UTF8<br>
Codec ID/Info : UTF-8 Plain Text<br>
Duration : 23 min 29 s<br>
Bit rate : 80 b/s<br>
Frame rate : 0.333 FPS<br>
Count of elements : 469<br>
Stream size : 13.9 KiB (0%)<br>
Title : SDH<br>
Language : Dutch<br>
Default : No<br>
Forced : No<br>
<br>
Text #18<br>
ID : 20<br>
Format : UTF-8<br>
Codec ID : S_TEXT/UTF8<br>
Codec ID/Info : UTF-8 Plain Text<br>
Duration : 23 min 31 s<br>
Bit rate : 54 b/s<br>
Frame rate : 0.239 FPS<br>
Count of elements : 338<br>
Stream size : 9.44 KiB (0%)<br>
Language : Norwegian<br>
Default : No<br>
Forced : No<br>
<br>
Text #19<br>
ID : 21<br>
Format : UTF-8<br>
Codec ID : S_TEXT/UTF8<br>
Codec ID/Info : UTF-8 Plain Text<br>
Duration : 23 min 31 s<br>
Bit rate : 51 b/s<br>
Frame rate : 0.243 FPS<br>
Count of elements : 343<br>
Stream size : 8.95 KiB (0%)<br>
Language : Polish<br>
Default : No<br>
Forced : No<br>
<br>
Text #20<br>
ID : 22<br>
Format : UTF-8<br>
Codec ID : S_TEXT/UTF8<br>
Codec ID/Info : UTF-8 Plain Text<br>
Duration : 23 min 31 s<br>
Bit rate : 52 b/s<br>
Frame rate : 0.249 FPS<br>
Count of elements : 352<br>
Stream size : 8.99 KiB (0%)<br>
Title : Brazilian<br>
Language : Portuguese<br>
Default : No<br>
Forced : No<br>
<br>
Text #21<br>
ID : 23<br>
Format : UTF-8<br>
Codec ID : S_TEXT/UTF8<br>
Codec ID/Info : UTF-8 Plain Text<br>
Duration : 23 min 29 s<br>
Bit rate : 80 b/s<br>
Frame rate : 0.360 FPS<br>
Count of elements : 508<br>
Stream size : 13.8 KiB (0%)<br>
Title : Brazilian (SDH)<br>
Language : Portuguese<br>
Default : No<br>
Forced : No<br>
<br>
Text #22<br>
ID : 24<br>
Format : UTF-8<br>
Codec ID : S_TEXT/UTF8<br>
Codec ID/Info : UTF-8 Plain Text<br>
Duration : 23 min 15 s<br>
Bit rate : 61 b/s<br>
Frame rate : 0.252 FPS<br>
Count of elements : 352<br>
Stream size : 10.5 KiB (0%)<br>
Title : European<br>
Language : Portuguese<br>
Default : No<br>
Forced : No<br>
<br>
Text #23<br>
ID : 25<br>
Format : UTF-8<br>
Codec ID : S_TEXT/UTF8<br>
Codec ID/Info : UTF-8 Plain Text<br>
Duration : 23 min 29 s<br>
Bit rate : 89 b/s<br>
Frame rate : 0.368 FPS<br>
Count of elements : 519<br>
Stream size : 15.4 KiB (0%)<br>
Title : European (SDH)<br>
Language : Portuguese<br>
Default : No<br>
Forced : No<br>
<br>
Text #24<br>
ID : 26<br>
Format : UTF-8<br>
Codec ID : S_TEXT/UTF8<br>
Codec ID/Info : UTF-8 Plain Text<br>
Duration : 23 min 31 s<br>
Bit rate : 55 b/s<br>
Frame rate : 0.183 FPS<br>
Count of elements : 258<br>
Stream size : 9.65 KiB (0%)<br>
Language : Romanian<br>
Default : No<br>
Forced : No<br>
<br>
Text #25<br>
ID : 27<br>
Format : UTF-8<br>
Codec ID : S_TEXT/UTF8<br>
Codec ID/Info : UTF-8 Plain Text<br>
Duration : 23 min 15 s<br>
Bit rate : 55 b/s<br>
Frame rate : 0.262 FPS<br>
Count of elements : 365<br>
Stream size : 9.54 KiB (0%)<br>
Language : Slovak<br>
Default : No<br>
Forced : No<br>
<br>
Text #26<br>
ID : 28<br>
Format : UTF-8<br>
Codec ID : S_TEXT/UTF8<br>
Codec ID/Info : UTF-8 Plain Text<br>
Duration : 23 min 31 s<br>
Bit rate : 57 b/s<br>
Frame rate : 0.260 FPS<br>
Count of elements : 367<br>
Stream size : 9.85 KiB (0%)<br>
Language : Swedish<br>
Default : No<br>
Forced : No<br>
<br>
Text #27<br>
ID : 29<br>
Format : UTF-8<br>
Codec ID : S_TEXT/UTF8<br>
Codec ID/Info : UTF-8 Plain Text<br>
Duration : 23 min 31 s<br>
Bit rate : 62 b/s<br>
Frame rate : 0.243 FPS<br>
Count of elements : 343<br>
Stream size : 10.8 KiB (0%)<br>
Language : Turkish<br>
Default : No<br>
Forced : No<br>
<br>
Text #28<br>
ID : 30<br>
Format : UTF-8<br>
Codec ID : S_TEXT/UTF8<br>
Codec ID/Info : UTF-8 Plain Text<br>
Duration : 23 min 15 s<br>
Bit rate : 57 b/s<br>
Frame rate : 0.260 FPS<br>
Count of elements : 363<br>
Stream size : 9.77 KiB (0%)<br>
Title : Traditional, Hong Kong<br>
Language : Chinese<br>
Default : No<br>
Forced : No<br>
<br>
Text #29<br>
ID : 31<br>
Format : UTF-8<br>
Codec ID : S_TEXT/UTF8<br>
Codec ID/Info : UTF-8 Plain Text<br>
Duration : 23 min 31 s<br>
Bit rate : 53 b/s<br>
Frame rate : 0.256 FPS<br>
Count of elements : 362<br>
Stream size : 9.21 KiB (0%)<br>
Title : Traditional<br>
Language : Chinese<br>
Default : No<br>
Forced : No<br>
<br>
Menu<br>
00:00:04.004 : en:Intro<br>
00:00:49.049 : en:Scene 1<br>
00:12:04.975 : en:Scene 2<br>
00:23:20.400 : en:Credits</div>
</div><br>
Screenshots:<br>
<img src="https://ptpimg.me/3h59zn.jpg" class="bbCodeImage LbImage" alt="[​IMG]" data-url="https://ptpimg.me/3h59zn.jpg" style=""> <br>
<div class="bbCodeBlock bbCodeVfcHH HiddenContent">
<div class="attribution type">Hidden Content:</div>
<blockquote>You must either reply or click 'Like' to see the hidden information contained here.</blockquote>
</div>
<div class="messageTextEndMarker">&nbsp;</div>
</blockquote>
</article>]]></description>
                <author><![CDATA[LazyRips]]></author>
                </item>

                </channel></rss>